# xmcd CD database file
#
# Track frame offsets:
#	150
#	32375
#	62857
#	87252
#	129112
#	156697
#	190927
#	212880
#	249342
#
# Disc length: 3579 seconds
#
# Revision: 0
# Processed by: cddbd v1.5.2PL0 Copyright (c) Steve Scherf et al.
# Submitted via: CDex 1.70beta2
#
DISCID=770df909
DTITLE=Robert Wagner Trio - Robert Wagner Trio
DYEAR=2001
DGENRE=Jazz
TTITLE0=Tricking You
TTITLE1=All Right
TTITLE2=Ten Tin Tom Time
TTITLE3=Maybe
TTITLE4=At Least Patrice
TTITLE5=Groovy Gravy
TTITLE6=Alebela
TTITLE7=Detrainin
TTITLE8=Hawaian Song
EXTD=YEAR: 2001
EXTT0=
EXTT1=
EXTT2=
EXTT3=
EXTT4=
EXTT5=
EXTT6=
EXTT7=
EXTT8=
PLAYORDER=
